#!OML:ASF E:\Steps\Project 1\Capture day 1\Session 2\Subject.ASF
:FULLY-SPECIFIED
:DEGREES
296
root 11.9477 18.0695 17.8318 -154.235 0.188455 180.497
lowerback -23.5779 -3.40595 -7.84992
upperback 3.34402 -1.99185 -0.610804
thorax 16.9016 -1.53918 2.95064
lowerneck -1.29329 -1.5798 -1.94722
upperneck 23.4186 -1.4558 7.60474
head 7.43602 0.55118 2.84013
rclavicle -5.1684e-015 -2.70347e-014
rhumerus -43.3607 -16.8699 -73.5666
rradius 37.0877
rwrist -1.98074
rhand -3.49155 -53.37
rfingers 7.12502
rthumb 22.2421 277.89
lclavicle -5.1684e-015 -2.70347e-014
lhumerus -30.067 0.671848 77.3444
lradius 38.2701
lwrist 2.74299
lhand -23.0355 -12.7432
lfingers 7.12502
lthumb 3.40884 17.2092
rfemur -34.8982 10.7574 18.3606
rtibia 26.7412
rfoot -24.1484 -9.26139
rtoes -30.3475
lfemur -27.5107 -6.56993 -19.9908
ltibia 7.80413
lfoot -3.94348 -2.56911
ltoes -29.4066
297
root 11.9396 18.0653 17.8196 -154.281 0.105292 180.426
lowerback -23.3774 -3.45786 -7.93731
upperback 3.22539 -2.04708 -0.649251
thorax 16.6592 -1.55701 2.94415
lowerneck -1.3461 -1.70578 -1.9547
upperneck 23.7091 -1.61329 7.65183
head 7.55103 0.501714 2.85638
rclavicle -3.97569e-016 1.03368e-014
rhumerus -43.6864 -17.071 -73.4641
rradius 37.0674
rwrist -1.97211
rhand -3.82596 -53.6529
rfingers 7.12502
rthumb 21.9211 277.569
lclavicle -3.97569e-016 1.03368e-014
lhumerus -30.3086 0.677282 77.4157
lradius 37.9069
lwrist 2.6607
lhand -22.8905 -12.5338
lfingers 7.12502
lthumb 3.54887 17.4164
rfemur -34.7478 11.1159 18.3798
rtibia 26.0306
rfoot -24.2162 -8.90662
rtoes -29.1954
lfemur -27.3035 -6.4874 -20.1392
ltibia 7.56852
lfoot -3.76159 -2.81122
ltoes -28.7446
298
root 11.9255 18.0657 17.8095 -154.187 0.061792 180.135
lowerback -23.3992 -3.55554 -8.15119
upperback 3.15364 -2.08606 -0.746709
thorax 16.592 -1.57869 2.94
lowerneck -1.40561 -1.80429 -1.90043
upperneck 23.8837 -1.7284 7.56348
head 7.62567 0.455321 2.81534
rclavicle 1.86858e-014 9.06458e-014
rhumerus -43.8874 -17.3462 -73.3259
rradius 37.1403
rwrist -1.82843
rhand -3.53771 -54.167
rfingers 7.12502
rthumb 22.1978 277.088
lclavicle 1.86858e-014 9.06458e-014
lhumerus -30.2951 0.631737 77.4893
lradius 37.341
lwrist 2.36876
lhand -22.5944 -12.9204
lfingers 7.12502
lthumb 3.83479 17.0249
rfemur -34.8511 11.1561 18.1515
rtibia 25.5531
rfoot -24.2097 -8.54936
rtoes -29.2923
lfemur -27.384 -6.69183 -20.5214
ltibia 7.61167
lfoot -3.73354 -2.86017
ltoes -29.0054
299
root 11.9147 18.0642 17.7983 -154.184 0.00113179 180.157
lowerback -23.4596 -3.61386 -8.10324
upperback 2.81007 -2.1781 -0.775476
thorax 16.9401 -1.62222 2.91861
lowerneck -1.32515 -1.78385 -1.91328
upperneck 23.8945 -1.68062 7.50036
head 7.61204 0.47189 2.79983
rclavicle -2.38542e-015 7.95139e-016
rhumerus -43.9547 -17.4291 -73.1614
rradius 37.0115
rwrist -1.61737
rhand -2.95725 -54.4023
rfingers 7.12502
rthumb 22.755 276.92
lclavicle -2.38542e-015 7.95139e-016
lhumerus -30.3476 0.651374 77.5433
lradius 36.893
lwrist 2.04137
lhand -22.3177 -12.9929
lfingers 7.12502
lthumb 4.10195 16.9474
rfemur -34.9542 11.2829 18.3168
rtibia 25.393
rfoot -24.388 -8.17502
rtoes -29.6388
lfemur -27.4386 -6.76637 -20.5277
ltibia 7.81114
lfoot -3.85251 -2.89891
ltoes -28.8409
300
root 11.9051 18.0606 17.7834 -154.23 0.00901773 180.158
lowerback -23.4274 -3.68979 -8.04035
upperback 3.1215 -2.2959 -0.741098
thorax 16.5898 -1.65901 2.80651
lowerneck -1.06758 -1.69234 -2.01211
upperneck 23.7096 -1.54787 7.51491
head 7.49765 0.51548 2.82432
rclavicle -3.57812e-014 -6.75868e-014
rhumerus -43.9094 -17.3571 -72.9883
rradius 36.5652
rwrist -1.17785
rhand -2.43611 -52.6065
rfingers 7.12502
rthumb 23.2551 278.778
lclavicle -3.57812e-014 -6.75868e-014
lhumerus -30.4657 0.85174 77.612
lradius 36.5244
lwrist 2.10174
lhand -22.4961 -13.0584
lfingers 7.12502
lthumb 3.92967 16.8852
rfemur -34.9595 11.5694 18.4022
rtibia 25.1473
rfoot -24.62 -7.98005
rtoes -29.459
lfemur -27.3499 -6.64405 -20.6243
ltibia 7.86613
lfoot -3.92786 -3.06927
ltoes -28.2909
301
root 11.8924 18.054 17.7651 -154.214 -0.0358362 180.028
lowerback -23.5305 -3.62348 -8.15888
upperback 3.10386 -2.42911 -0.780775
thorax 16.6268 -1.83251 2.74342
lowerneck -2.56823 -2.14755 -1.06302
upperneck 26.3799 -1.70621 5.53321
head 8.67134 0.50395 2.06015
rclavicle -1.07344e-014 4.85035e-014
rhumerus -43.9828 -16.8732 -73.287
rradius 36.7696
rwrist -1.97981
rhand -3.52457 -52.9077
rfingers 7.12502
rthumb 22.2104 278.348
lclavicle -1.07344e-014 4.85035e-014
lhumerus -30.5575 0.902536 77.7253
lradius 36.0407
lwrist 2.30605
lhand -22.9851 -13.5371
lfingers 7.12502
lthumb 3.45746 16.4146
rfemur -34.8465 11.6069 18.3851
rtibia 24.6145
rfoot -24.6065 -7.88173
rtoes -30.0794
lfemur -27.2574 -6.49221 -20.9273
ltibia 7.81524
lfoot -3.89688 -3.35219
ltoes -27.9226
302
root 11.8808 18.0495 17.7509 -154.204 -0.131312 179.95
lowerback -23.4981 -3.63747 -8.1585
upperback 3.04333 -2.45223 -0.826806
thorax 16.5365 -1.83824 2.68566
lowerneck -2.62733 -2.17234 -0.962702
upperneck 26.4604 -1.73172 5.47304
head 8.71012 0.502012 2.02268
rclavicle 2.06736e-014 2.62396e-014
rhumerus -44.2361 -16.7959 -73.3646
rradius 37.017
rwrist -2.65911
rhand -4.17946 -53.6617
rfingers 7.12502
rthumb 21.5816 277.521
lclavicle 2.06736e-014 2.62396e-014
lhumerus -30.6364 0.781013 77.8226
lradius 35.6262
lwrist 2.25294
lhand -22.9845 -13.55
lfingers 7.12502
lthumb 3.45803 16.4017
rfemur -34.7147 11.4479 18.492
rtibia 24.1593
rfoot -24.4317 -7.76751
rtoes -30.8164
lfemur -27.1657 -6.35014 -21.1403
ltibia 7.74398
lfoot -3.87375 -3.65242
ltoes -27.5286
303
root 11.8721 18.0501 17.7445 -154.199 -0.220706 179.927
lowerback -23.4845 -3.64519 -8.14978
upperback 2.69039 -2.47202 -0.882221
thorax 16.8233 -1.85034 2.67747
lowerneck -2.6519 -2.21021 -0.929855
upperneck 26.4813 -1.7742 5.40274
head 8.72274 0.479233 1.99005
rclavicle -1.63003e-014 3.33958e-014
rhumerus -44.3557 -17.0865 -73.2426
rradius 37.0973
rwrist -2.43812
rhand -3.70136 -54.5256
rfingers 7.12502
rthumb 22.0407 276.71
lclavicle -1.63003e-014 3.33958e-014
lhumerus -30.6495 0.872132 77.8164
lradius 35.3295
lwrist 1.75728
lhand -22.2922 -13.2295
lfingers 7.12502
lthumb 4.1266 16.7102
rfemur -34.7098 11.4044 18.5876
rtibia 23.8874
rfoot -24.2646 -7.63991
rtoes -30.1467
lfemur -27.1425 -6.24765 -21.2169
ltibia 7.72552
lfoot -3.86484 -3.87898
ltoes -27.3487
304
root 11.8591 18.0452 17.7229 -153.969 -0.570174 180.178
lowerback -23.8299 -3.65735 -7.67262
upperback 2.97469 -2.59899 -0.782399
thorax 16.6302 -1.85938 2.40262
lowerneck -2.67786 -2.2421 -0.857859
upperneck 26.4801 -1.80523 5.28111
head 8.72669 0.458358 1.93321
rclavicle -1.27222e-014 2.70347e-014
rhumerus -44.3975 -17.2738 -73.1716
rradius 37.1048
rwrist -2.01487
rhand -3.40014 -54.03
rfingers 7.12502
rthumb 22.3299 277.24
lclavicle -1.27222e-014 2.70347e-014
lhumerus -30.6368 1.04652 77.8567
lradius 34.9422
lwrist 1.35402
lhand -21.9674 -13.3966
lfingers 7.12502
lthumb 4.44027 16.5368
rfemur -34.7841 11.2354 19.039
rtibia 23.5508
rfoot -24.3425 -7.54388
rtoes -29.5956
lfemur -27.3077 -6.1918 -20.9755
ltibia 7.68047
lfoot -3.87566 -4.13909
ltoes -27.1604
305
root 11.8482 18.0419 17.7075 -153.931 -0.753079 180.237
lowerback -23.9728 -3.68146 -7.49171
upperback 2.97329 -2.67214 -0.777245
thorax 16.7049 -1.87589 2.27585
lowerneck -2.69165 -2.2173 -0.832288
upperneck 26.4673 -1.77447 5.27942
head 8.72341 0.474602 1.93037
rclavicle 7.95139e-015 -3.10104e-014
rhumerus -44.4052 -17.4314 -73.086
rradius 36.9464
rwrist -1.78912
rhand -3.54411 -53.1517
rfingers 7.12502
rthumb 22.1917 278.102
lclavicle 7.95139e-015 -3.10104e-014
lhumerus -30.6592 1.16514 77.9289
lradius 34.5035
lwrist 1.15557
lhand -22.1348 -13.5908
lfingers 7.12502
lthumb 4.27857 16.346
rfemur -34.6875 11.2705 19.1941
rtibia 23.2479
rfoot -24.5618 -7.2577
rtoes -28.5544
lfemur -27.2441 -6.29402 -20.9186
ltibia 7.57115
lfoot -3.91975 -4.13368
ltoes -27.2535
306
root 11.8395 18.0376 17.6934 -153.926 -0.783103 180.203
lowerback -24.0657 -3.66425 -7.43543
upperback 2.95353 -2.65416 -0.826149
thorax 16.7227 -1.86111 2.19411
lowerneck -2.68589 -2.15293 -0.935788
upperneck 26.4741 -1.70264 5.45393
head 8.72425 0.518978 2.0145
rclavicle -3.18055e-015 4.77083e-015
rhumerus -44.4764 -17.7374 -72.8763
rradius 36.7003
rwrist -1.50851
rhand -3.55316 -53.3734
rfingers 7.12502
rthumb 22.183 277.879
lclavicle -3.18055e-015 4.77083e-015
lhumerus -30.7069 1.25405 77.9388
lradius 34.1422
lwrist 0.825594
lhand -22.1452 -13.4271
lfingers 7.12502
lthumb 4.2686 16.5098
rfemur -34.4979 11.4584 19.1862
rtibia 22.7858
rfoot -24.5214 -7.04446
rtoes -27.6437
lfemur -27.0938 -6.31441 -21.0006
ltibia 7.39271
lfoot -3.87271 -4.15555
ltoes -26.9905
307
root 11.8291 18.0301 17.6787 -153.85 -0.861384 180.195
lowerback -24.1225 -3.61443 -7.31748
upperback 2.85638 -2.62136 -0.869266
thorax 16.6246 -1.83157 2.09425
lowerneck -2.79579 -2.21184 -0.870672
upperneck 26.6627 -1.77415 5.45907
head 8.81294 0.507283 2.00522
rclavicle -3.65764e-014 -2.62396e-014
rhumerus -44.7018 -17.8096 -72.8129
rradius 36.7245
rwrist -1.60404
rhand -3.71802 -53.9282
rfingers 7.12502
rthumb 22.0247 277.306
lclavicle -3.65764e-014 -2.62396e-014
lhumerus -30.8474 1.23314 77.9793
lradius 33.8803
lwrist 0.591881
lhand -22.1038 -13.048
lfingers 7.12502
lthumb 4.30854 16.8882
rfemur -34.3585 11.4107 19.2628
rtibia 22.3119
rfoot -24.2049 -7.15195
rtoes -28.5518
lfemur -26.9662 -6.1356 -21.1084
ltibia 7.06876
lfoot -3.74311 -4.44395
ltoes -26.7335
